<svg xmlns="http://www.w3.org/2000/svg" viewBox="0 0 32 32" width="32" height="32">
  <defs>
    <linearGradient id="grad" x1="0%" y1="0%" x2="100%" y2="100%">
      <stop offset="0%" stop-color="#a855f7" />
      <stop offset="100%" stop-color="#4f46e5" />
    </linearGradient>
  </defs>
  <rect width="32" height="32" rx="8" fill="url(#grad)" />
  <g transform="translate(4, 4) scale(1)" stroke="#ffffff" stroke-width="2" stroke-linecap="round" stroke-linejoin="round" fill="none">
    <path d="m12 3-1.912 5.813a2 2 0 0 1-1.275 1.275L3 12l5.813 1.912a2 2 0 0 1 1.275 1.275L12 21l1.912-5.813a2 2 0 0 1 1.275-1.275L21 12l-5.813-1.912a2 2 0 0 1-1.275-1.275Z" fill="#ffffff" fill-opacity="0.2"/>
    <path d="m5 3 1 2.5L8.5 6 6 7 5 9.5 4 7 1.5 6 4 5.5Z" fill="#ffffff" fill-opacity="0.4" stroke-width="1"/>
    <path d="m19 17 1 2.5 2.5.5-2.5 1-1 2.5-1-2.5-2.5-1 2.5-1Z" fill="#ffffff" fill-opacity="0.4" stroke-width="1"/>
  </g>
</svg>
